# xmcd CD database file
#
# Track frame offsets:
#	150
#	19200
#	39825
#	62612
#	80137
#	94687
#	109622
#	126375
#	142700
#
# Disc length: 2191 seconds
#
# Revision: 7
# Processed by: cddbd v1.5.2PL0 Copyright (c) Steve Scherf et al.
# Submitted via: CDex 1.51
#
DISCID=6d088d09
DTITLE=Fenton Robinson - I Hear Some Blues Downstairs
DYEAR=1977
DGENRE=Blues
TTITLE0=I Hear Some Blues Downstairs
TTITLE1=Just A Little Bit
TTITLE2=West Side Story
TTITLE3=I'm So Tired
TTITLE4=I Wish For You
TTITLE5=Tell Me What's The Reason
TTITLE6=Going West
TTITLE7=Killing Floor
TTITLE8=As The Years Go Passing By
EXTD=YEAR: 1977
EXTT0=
EXTT1=
EXTT2=
EXTT3=
EXTT4=
EXTT5=
EXTT6=
EXTT7=
EXTT8=
PLAYORDER=
